<?xml version="1.0" encoding="utf-8"?>
<!-- Generator: Adobe Illustrator 25.2.1, SVG Export Plug-In . SVG Version: 6.00 Build 0)  -->
<svg version="1.1" id="Layer_1" xmlns="http://www.w3.org/2000/svg" xmlns:xlink="http://www.w3.org/1999/xlink" x="0px" y="0px"
	 viewBox="0 0 347.9 301.3" style="enable-background:new 0 0 347.9 301.3;" xml:space="preserve">
<style type="text/css">
	.st0{fill:#FFFFFF;}
	.st1{fill:none;stroke:#231F20;stroke-miterlimit:10;}
</style>
<g id="XMLID_1_">
	<g>
		<polygon class="st0" points="326.6,264.4 347.9,301.3 305.4,301.3 		"/>
		<polygon points="326.8,264.1 326.6,264.4 326.4,264.1 		"/>
		<polygon points="326.6,264.4 305.4,301.3 304.6,301.3 283.2,264.1 326.4,264.1 		"/>
		<polygon class="st0" points="326.4,264.1 283.2,264.1 283.1,264 304.7,226.5 		"/>
		<polygon points="305.4,301.3 305,301.9 304.6,301.3 		"/>
		<polygon points="305,226 304.7,226.5 304.4,226 		"/>
		<polygon points="304.4,226 304.7,226.5 283.1,264 261.6,301.3 260.4,301.3 238.9,264 217.1,226.4 217.4,226 261,226 		"/>
		<polygon class="st0" points="283.2,264.1 304.6,301.3 261.6,301.3 283.1,264 		"/>
		<polygon class="st0" points="282.6,188.3 304.4,226 261,226 261,225.8 		"/>
		<polygon points="282.8,188 282.6,188.3 282.5,188 		"/>
		<polygon points="282.5,188 282.6,188.3 261,225.8 239.2,188.1 239.3,188 		"/>
		<polygon class="st0" points="260.9,150.6 282.5,188 239.3,188 		"/>
		<polygon points="261.6,301.3 261,302.3 260.4,301.3 		"/>
		<polygon class="st0" points="261,225.8 261,226 217.4,226 239.2,188.1 		"/>
		<polygon points="260.9,150.6 260.9,150.6 260.9,150.6 		"/>
		<polygon points="260.9,150.6 260.9,150.6 239.3,188 239.2,188 239.2,188.1 217.4,226 216.9,226 217.1,226.4 195.4,264.1 
			195.1,264.1 195.2,264.3 173.9,301.3 152.6,264.4 152.8,264.1 152.4,264.1 130.7,226.4 131,226 130.5,226 108.8,188.3 
			108.8,188.3 108.7,188.3 87,150.6 129.8,150.6 129.9,150.8 130,150.6 173.9,150.6 217.8,150.6 217.9,150.8 218,150.6 		"/>
		<polygon class="st0" points="239.5,113.6 260.9,150.6 218,150.6 		"/>
		<polygon class="st0" points="238.9,264 260.4,301.3 217.2,301.3 238.8,264.1 		"/>
		<polygon points="239.8,113 239.5,113.6 239.2,113 		"/>
		<polygon points="239.2,113 239.5,113.6 218,150.6 217.8,150.6 196.1,113 		"/>
		<polygon points="239.3,188 239.2,188.1 239.2,188 		"/>
		<polygon class="st0" points="239.2,113 196.1,113 195.8,112.8 217.4,75.4 		"/>
		<polygon class="st0" points="217.1,226.4 238.9,264 238.8,264.1 195.4,264.1 		"/>
		<polygon points="238.8,264.1 217.2,301.3 216.6,301.3 195.2,264.3 195.4,264.1 		"/>
		<polygon points="218,150.6 217.9,150.8 217.8,150.6 		"/>
		<polygon points="218,74.4 217.4,75.4 216.9,74.4 		"/>
		<polygon class="st0" points="196.1,113 217.8,150.6 173.9,150.6 195.8,112.8 		"/>
		<polygon points="216.9,74.4 217.4,75.4 195.8,112.8 173.9,150.6 152.1,112.8 130.4,75.3 131,74.4 173.7,74.4 173.9,74.7 
			174.1,74.4 		"/>
		<polygon points="217.4,226 217.1,226.4 216.9,226 		"/>
		<polygon points="217.2,301.3 216.9,301.9 216.6,301.3 		"/>
		<polygon class="st0" points="216.9,74.4 174.1,74.4 195.5,37.4 		"/>
		<polygon class="st0" points="195.2,264.3 216.6,301.3 173.9,301.3 		"/>
		<polygon points="195.8,36.9 195.5,37.4 195.2,36.9 		"/>
		<polygon points="195.2,36.9 195.5,37.4 174.1,74.4 173.7,74.4 152.4,37.3 152.6,36.9 		"/>
		<polygon points="195.4,264.1 195.2,264.3 195.1,264.1 		"/>
		<polygon class="st0" points="173.9,0 195.2,36.9 152.6,36.9 		"/>
		<polygon points="174.1,74.4 173.9,74.7 173.7,74.4 		"/>
		<polygon class="st0" points="152.1,112.8 173.9,150.6 130,150.6 151.7,113 		"/>
		<polygon class="st0" points="152.6,264.4 173.9,301.3 131.4,301.3 		"/>
		<polygon class="st0" points="173.7,74.4 131,74.4 152.4,37.3 		"/>
		<polygon points="152.8,264.1 152.6,264.4 152.4,264.1 		"/>
		<polygon points="152.6,264.4 131.4,301.3 130.6,301.3 109.2,264.1 152.4,264.1 		"/>
		<polygon points="152.6,36.9 152.4,37.3 152.1,36.9 		"/>
		<polygon class="st0" points="130.7,226.4 152.4,264.1 109.2,264.1 109.1,264 		"/>
		<polygon class="st0" points="152.1,112.8 151.7,113 108.7,113 130.4,75.3 		"/>
		<polygon points="151.7,113 130,150.6 129.8,150.6 108.4,113.5 108.7,113 		"/>
		<polygon points="131.4,301.3 131,301.9 130.6,301.3 		"/>
		<polygon points="131,226 130.7,226.4 130.5,226 		"/>
		<polygon points="131,74.4 130.4,75.3 129.9,74.4 		"/>
		<polygon points="130.5,226 130.7,226.4 109.1,264 87.6,301.3 86.4,301.3 64.9,264 43.2,226.4 43.5,226 87,226 		"/>
		<polygon class="st0" points="109.2,264.1 130.6,301.3 87.6,301.3 109.1,264 		"/>
		<polygon class="st0" points="108.8,188.3 130.5,226 87,226 		"/>
		<polygon points="130,150.6 129.9,150.8 129.8,150.6 		"/>
		<polygon class="st0" points="108.4,113.5 129.8,150.6 87,150.6 87,150.6 		"/>
		<polygon points="108.8,188.3 108.8,188.3 108.7,188.3 		"/>
		<polygon points="108.7,188.3 108.8,188.3 87,226 65.2,188.3 65.2,188.3 		"/>
		<polygon class="st0" points="87,150.6 108.7,188.3 65.2,188.3 87,150.6 		"/>
		<polygon points="108.7,113 108.4,113.5 108.1,113 		"/>
		<polygon points="87.6,301.3 87,302.3 86.4,301.3 		"/>
		<polygon class="st0" points="65.2,188.3 87,226 43.5,226 		"/>
		<polygon class="st0" points="64.9,264 86.4,301.3 43.3,301.3 64.8,264.1 		"/>
		<polygon points="65.2,188.3 65.2,188.3 65.2,188.3 		"/>
		<polygon class="st0" points="43.2,226.4 64.9,264 64.8,264.1 21.5,264.1 		"/>
		<polygon points="64.8,264.1 43.3,301.3 42.7,301.3 21.3,264.3 21.5,264.1 		"/>
		<polygon points="43.5,226 43.2,226.4 43,226 		"/>
		<polygon points="43.3,301.3 43,301.9 42.7,301.3 		"/>
		<polygon class="st0" points="21.3,264.3 42.7,301.3 0,301.3 		"/>
		<polygon points="21.5,264.1 21.3,264.3 21.2,264.1 		"/>
	</g>
	<g>
		<line class="st1" x1="216.9" y1="74.4" x2="195.5" y2="37.4"/>
		<line class="st1" x1="239.2" y1="113" x2="217.4" y2="75.4"/>
		<line class="st1" x1="260.9" y1="150.6" x2="239.5" y2="113.6"/>
		<line class="st1" x1="282.5" y1="188" x2="260.9" y2="150.6"/>
		<line class="st1" x1="304.4" y1="226" x2="282.6" y2="188.3"/>
		<line class="st1" x1="326.4" y1="264.1" x2="304.7" y2="226.5"/>
		<polyline class="st1" points="305.4,301.3 347.9,301.3 326.6,264.4 		"/>
		<line class="st1" x1="261.6" y1="301.3" x2="304.6" y2="301.3"/>
		<line class="st1" x1="217.2" y1="301.3" x2="260.4" y2="301.3"/>
		<polyline class="st1" points="131.4,301.3 173.9,301.3 216.6,301.3 		"/>
		<line class="st1" x1="87.6" y1="301.3" x2="130.6" y2="301.3"/>
		<line class="st1" x1="43.3" y1="301.3" x2="86.4" y2="301.3"/>
		<polyline class="st1" points="21.3,264.3 0,301.3 42.7,301.3 		"/>
		<line class="st1" x1="43.2" y1="226.4" x2="21.5" y2="264.1"/>
		<line class="st1" x1="65.2" y1="188.3" x2="43.5" y2="226"/>
		<polyline class="st1" points="108.4,113.5 87,150.6 65.2,188.3 		"/>
		<line class="st1" x1="130.4" y1="75.3" x2="108.7" y2="113"/>
		<line class="st1" x1="152.4" y1="37.3" x2="131" y2="74.4"/>
		<polyline class="st1" points="195.2,36.9 173.9,0 152.6,36.9 		"/>
	</g>
</g>
<g id="XMLID_2_">
	<g>
		<polygon points="173.9,0 0,301.3 0,0 		"/>
	</g>
	<g>
	</g>
</g>
<g id="XMLID_3_">
	<g>
		<polygon points="349.3,0 347.9,301.3 173.9,0 		"/>
	</g>
	<g>
	</g>
</g>
</svg>
