<?xml version="1.0" encoding="utf-8"?>
<!-- Generator: Adobe Illustrator 25.2.1, SVG Export Plug-In . SVG Version: 6.00 Build 0)  -->
<svg version="1.1" id="Layer_1" xmlns="http://www.w3.org/2000/svg" xmlns:xlink="http://www.w3.org/1999/xlink" x="0px" y="0px"
	 viewBox="0 0 354.3 308.67" style="enable-background:new 0 0 354.3 308.67;" xml:space="preserve">
<style type="text/css">
	.st0{stroke:#000000;stroke-miterlimit:10;}
	.st1{fill:#FFFFFF;}
</style>
<polygon class="st0" points="176.94,2.04 3.04,303.26 350.85,303.26 "/>
<polygon class="st1" points="176.94,303.26 263.9,152.65 89.99,152.65 "/>
<polygon class="st1" points="176.94,152.65 220.96,76.42 132.93,76.42 "/>
<polygon class="st1" points="263.97,304.26 307.98,228.02 219.95,228.02 "/>
<polygon class="st1" points="89.99,304.26 134,228.02 45.98,228.02 "/>
<polygon class="st1" points="176.94,76.65 198.75,38.89 155.14,38.89 "/>
<polygon class="st1" points="220.95,152.78 242.76,115.02 199.15,115.02 "/>
<polygon class="st1" points="132.93,152.78 154.73,115.02 111.13,115.02 "/>
<polygon class="st1" points="263.97,227.79 285.77,190.02 242.16,190.02 "/>
<polygon class="st1" points="89.99,228.03 111.79,190.26 68.19,190.26 "/>
<polygon class="st1" points="219.95,303.91 241.76,266.15 198.15,266.15 "/>
<polygon class="st1" points="307.98,303.91 329.78,266.15 286.18,266.15 "/>
<polygon class="st1" points="134,303.91 155.81,266.15 112.2,266.15 "/>
<polygon class="st1" points="45.98,303.91 67.78,266.15 24.17,266.15 "/>
</svg>
